<?xml version="1.0" standalone="no"?>
<!DOCTYPE svg PUBLIC "-//W3C//DTD SVG 20010904//EN"
 "http://www.w3.org/TR/2001/REC-SVG-20010904/DTD/svg10.dtd">
<svg version="1.0" xmlns="http://www.w3.org/2000/svg"
 width="1024.000000pt" height="1024.000000pt" viewBox="0 0 1024.000000 1024.000000"
 preserveAspectRatio="xMidYMid meet">
<metadata>
Created by potrace 1.11, written by Peter Selinger 2001-2013
</metadata>
<g transform="translate(0.000000,1024.000000) scale(0.100000,-0.100000)"
fill="#000000" stroke="none">
<path d="M4997 10083 c-4 -4 -44 -8 -90 -9 -77 -2 -208 -10 -287 -19 -122 -12
-244 -29 -260 -35 -3 -1 -9 -2 -14 -1 -5 1 -32 -3 -60 -9 -28 -5 -67 -12 -86
-14 -19 -3 -36 -6 -37 -7 -3 -2 -7 -3 -53 -12 -19 -4 -46 -10 -60 -13 -14 -3
-35 -7 -46 -10 -80 -16 -281 -72 -399 -110 -77 -25 -144 -47 -150 -47 -5 -1
-12 -4 -15 -7 -3 -3 -38 -16 -77 -30 -40 -13 -73 -29 -73 -34 0 -5 -3 -7 -6
-4 -7 8 -58 -13 -227 -91 -49 -23 -93 -41 -98 -41 -5 0 -9 -4 -9 -10 0 -5 -8
-10 -17 -11 -10 0 -49 -18 -88 -40 -38 -21 -81 -44 -95 -51 -14 -7 -27 -15
-30 -18 -3 -3 -30 -18 -60 -33 -129 -66 -551 -352 -636 -431 -7 -6 -29 -24
-50 -41 -20 -16 -48 -39 -60 -50 -13 -11 -49 -42 -81 -70 -77 -66 -378 -368
-427 -427 -21 -26 -52 -62 -68 -80 -17 -18 -46 -53 -67 -78 -20 -25 -39 -46
-43 -48 -5 -2 -8 -8 -8 -13 0 -5 -8 -17 -17 -27 -10 -10 -25 -29 -33 -42 -8
-13 -23 -32 -32 -42 -10 -10 -18 -21 -18 -25 0 -4 -8 -16 -19 -27 -28 -32
-171 -245 -171 -256 0 -6 -4 -10 -10 -10 -5 0 -10 -4 -10 -10 0 -5 -17 -36
-37 -67 -21 -32 -38 -60 -38 -63 0 -3 -20 -38 -43 -78 -63 -107 -172 -329
-235 -477 -61 -145 -69 -166 -73 -180 -1 -5 -10 -28 -19 -49 -9 -22 -18 -47
-20 -55 -2 -9 -15 -47 -30 -86 -14 -38 -25 -70 -25 -70 1 0 -1 -7 -4 -15 -13
-41 -27 -89 -31 -106 -2 -10 -10 -40 -18 -66 -8 -27 -13 -48 -10 -48 3 0 0 -7
-7 -15 -7 -8 -10 -15 -7 -15 3 0 -3 -31 -14 -70 -10 -38 -18 -73 -18 -77 1 -5
0 -10 -1 -13 -6 -15 -40 -180 -45 -218 -3 -20 -7 -48 -9 -62 -12 -59 -26 -159
-31 -215 -3 -33 -8 -71 -10 -85 -26 -146 -26 -809 0 -995 3 -22 7 -60 9 -85 2
-25 7 -61 10 -80 3 -19 8 -51 11 -70 2 -19 7 -48 10 -65 3 -16 7 -46 9 -65 3
-19 5 -35 6 -35 2 0 8 -30 15 -70 12 -79 20 -114 28 -135 3 -8 13 -46 21 -85
9 -38 18 -77 20 -85 3 -8 11 -40 20 -70 29 -109 52 -181 72 -235 4 -11 8 -24
10 -30 1 -5 9 -27 18 -47 9 -21 13 -38 10 -38 -4 0 -2 -6 3 -12 5 -7 18 -35
28 -63 20 -58 90 -226 111 -269 8 -16 14 -35 14 -42 0 -7 3 -14 8 -16 4 -1 18
-28 32 -58 14 -30 29 -58 35 -62 5 -4 7 -8 3 -8 -8 0 46 -102 128 -245 13 -22
33 -59 46 -82 12 -24 26 -43 30 -43 4 0 8 -5 8 -10 0 -6 18 -38 40 -71 22 -33
40 -63 40 -65 0 -3 6 -12 13 -19 29 -33 37 -45 37 -55 0 -5 4 -10 8 -10 5 0
15 -12 23 -27 8 -16 16 -30 19 -33 3 -3 34 -44 70 -92 35 -49 68 -88 72 -88 4
0 8 -6 8 -14 0 -8 3 -16 8 -18 4 -1 52 -57 107 -123 104 -125 360 -387 478
-490 38 -33 74 -65 80 -70 7 -6 37 -30 67 -55 30 -25 57 -47 60 -50 3 -3 52
-41 110 -84 58 -43 113 -84 122 -91 9 -7 27 -19 40 -26 13 -6 25 -15 28 -19 7
-9 264 -171 325 -205 28 -15 84 -45 125 -67 41 -22 81 -45 88 -50 6 -6 12 -7
12 -3 0 4 7 2 15 -5 17 -14 134 -71 220 -107 105 -44 129 -54 157 -69 14 -8
31 -14 36 -14 6 0 23 -5 39 -12 15 -6 34 -12 42 -14 7 -1 18 -7 24 -13 6 -6
21 -11 32 -11 12 0 25 -3 29 -8 4 -4 11 -7 14 -8 4 0 14 -3 22 -7 18 -7 242
-76 268 -82 9 -3 79 -20 154 -39 120 -31 263 -62 323 -71 11 -2 38 -6 60 -9
129 -21 218 -33 296 -40 26 -2 52 -7 58 -10 6 -4 11 -2 11 4 0 6 5 8 13 3 14
-9 51 -12 208 -16 63 -2 121 -7 127 -11 7 -4 12 -3 12 2 0 7 37 9 48 2 7 -5
71 -3 85 3 9 3 19 2 22 -4 4 -5 11 -6 18 -2 6 4 61 8 122 9 60 1 137 5 170 9
33 3 87 8 120 11 69 7 79 8 160 18 70 9 100 14 100 16 0 1 9 3 20 4 32 4 109
16 141 22 16 3 38 7 49 9 11 2 38 8 60 14 22 5 51 12 65 15 43 9 63 13 145 35
44 12 87 24 95 26 8 2 15 4 15 5 0 1 11 4 60 14 6 1 16 5 23 9 6 5 16 6 21 2
5 -3 12 -1 16 5 3 5 25 14 48 20 23 6 51 15 62 19 47 20 181 65 188 63 4 -1 7
3 7 10 0 6 3 9 6 6 3 -4 24 2 47 12 108 47 123 53 132 55 6 2 74 33 150 71 77
37 147 70 155 73 31 12 175 95 182 105 4 6 8 7 8 3 0 -4 24 7 53 25 29 18 62
38 73 45 144 88 469 316 504 353 3 3 28 23 55 45 28 22 57 46 66 55 9 8 38 33
64 55 64 54 389 378 446 446 158 184 369 458 369 478 0 5 4 11 8 13 14 5 91
126 211 332 76 131 214 406 211 422 -1 4 3 10 10 14 6 4 12 13 14 21 4 27 39
109 46 109 4 0 7 6 7 13 0 10 23 77 79 222 4 11 8 22 9 25 1 3 4 12 8 20 12
32 46 139 71 230 15 52 30 102 33 110 3 8 7 22 8 30 5 28 13 65 30 129 9 35
18 77 20 92 2 16 6 36 9 46 3 10 7 34 10 53 3 19 8 46 11 60 2 13 7 40 10 60
3 20 7 45 9 56 2 12 7 45 10 75 4 30 9 70 11 89 6 45 13 112 22 225 10 117 10
614 0 730 -10 115 -13 138 -32 297 -14 114 -78 453 -85 453 -1 0 -3 11 -5 25
-2 14 -8 43 -14 65 -7 22 -14 48 -16 59 -2 10 -12 44 -21 75 -10 31 -18 62
-20 68 -12 62 -126 378 -189 523 -53 122 -58 134 -60 140 -3 13 -147 293 -180
350 -21 36 -43 75 -49 87 -6 13 -14 23 -18 23 -5 0 -8 4 -8 9 0 13 -101 175
-111 179 -5 2 -9 10 -9 18 0 8 -4 14 -10 14 -5 0 -10 6 -10 14 0 8 -6 21 -13
28 -7 7 -37 48 -67 91 -30 44 -62 86 -70 95 -9 10 -29 35 -45 57 -29 40 -51
67 -70 89 -6 6 -30 36 -55 66 -136 165 -405 434 -585 585 -38 32 -72 61 -75
65 -3 3 -21 17 -40 30 -19 13 -37 27 -40 30 -11 12 -140 110 -145 110 -3 0
-11 5 -18 10 -48 40 -66 54 -99 72 -21 12 -38 25 -38 30 0 4 -4 8 -10 8 -9 0
-72 39 -97 60 -7 5 -15 10 -18 10 -4 0 -25 12 -48 28 -55 35 -73 46 -127 75
-25 14 -70 39 -100 56 -81 46 -263 134 -387 187 -18 8 -48 20 -65 28 -85 37
-151 62 -318 118 -147 50 -389 119 -465 132 -16 3 -59 13 -95 21 -36 8 -80 17
-99 20 -18 2 -41 6 -50 9 -14 4 -46 9 -138 21 -13 2 -42 6 -65 10 -24 4 -63 9
-88 12 -25 2 -65 6 -90 8 -122 12 -183 16 -276 19 -55 1 -106 6 -112 10 -7 4
-12 3 -12 -2 0 -10 -36 -9 -46 1 -4 3 -16 1 -28 -5 -11 -6 -21 -11 -21 -11 0
0 -10 5 -22 12 -13 6 -23 8 -23 3 0 -10 -53 -10 -61 1 -3 4 -9 4 -12 0z m115
-1288 c9 9 393 -6 393 -15 0 -1 23 -3 50 -6 66 -6 110 -12 110 -14 0 -1 11 -3
25 -5 14 -1 36 -5 50 -8 14 -2 45 -8 70 -12 64 -10 65 -11 165 -35 50 -12 135
-35 190 -52 55 -16 105 -31 110 -32 6 -2 19 -6 30 -10 11 -5 63 -24 115 -43
52 -19 104 -38 115 -43 33 -15 178 -80 215 -98 19 -9 37 -19 40 -22 6 -7 30
-17 44 -18 5 0 12 -4 15 -9 3 -4 22 -16 41 -26 73 -39 95 -52 102 -62 4 -5 8
-7 8 -3 0 10 240 -149 345 -229 26 -20 163 -130 184 -148 88 -75 371 -368 440
-455 46 -58 87 -107 90 -110 3 -3 11 -12 16 -21 11 -18 190 -287 202 -305 12
-16 32 -51 55 -97 12 -23 28 -50 36 -59 8 -10 11 -18 7 -18 -4 0 -2 -8 7 -17
29 -36 198 -421 198 -453 0 -9 4 -20 9 -26 6 -7 48 -129 56 -164 5 -23 28
-100 35 -120 5 -14 11 -38 14 -55 8 -51 16 -89 23 -110 8 -23 7 -17 18 -80 4
-27 10 -57 12 -65 3 -18 9 -58 17 -120 3 -25 8 -63 11 -85 7 -53 16 -165 19
-246 1 -36 5 -70 9 -75 3 -6 2 -15 -2 -22 -4 -6 -4 -39 -1 -72 3 -33 3 -60 0
-60 -3 0 -5 -39 -6 -88 -1 -90 -11 -239 -19 -282 -2 -14 -7 -47 -9 -75 -3 -27
-8 -63 -11 -78 -3 -15 -7 -45 -8 -67 -1 -22 -5 -40 -8 -40 -4 0 -9 -19 -13
-42 -4 -24 -9 -54 -12 -68 -3 -14 -6 -35 -6 -47 -1 -13 -6 -23 -10 -23 -4 0
-7 -3 -6 -7 9 -36 -101 -375 -185 -573 -6 -14 -11 -27 -12 -30 0 -3 -16 -36
-35 -75 -19 -38 -34 -72 -35 -75 -1 -6 -37 -76 -83 -160 -19 -36 -39 -66 -44
-68 -4 -2 -8 -9 -8 -16 0 -16 -191 -306 -214 -325 -9 -7 -16 -17 -16 -22 0 -5
-9 -19 -19 -31 -10 -13 -53 -63 -94 -113 -41 -49 -91 -107 -111 -128 -20 -21
-36 -43 -36 -49 0 -6 -2 -9 -5 -7 -2 3 -53 -43 -113 -101 -115 -111 -141 -134
-182 -162 -14 -10 -21 -18 -17 -18 12 0 -280 -219 -310 -233 -12 -5 -23 -14
-23 -19 0 -4 -7 -8 -15 -8 -7 0 -18 -6 -22 -13 -4 -6 -21 -19 -38 -27 -16 -8
-48 -26 -70 -41 -76 -50 -337 -184 -377 -194 -16 -4 -28 -11 -28 -16 0 -5 -8
-9 -18 -9 -10 0 -28 -7 -40 -16 -12 -8 -27 -12 -32 -9 -6 3 -10 2 -10 -2 0 -5
-33 -19 -72 -33 -40 -13 -77 -27 -83 -31 -30 -20 -402 -120 -540 -145 -22 -4
-47 -9 -55 -11 -8 -1 -35 -5 -60 -8 -25 -3 -56 -8 -70 -11 -14 -3 -41 -7 -60
-9 -86 -9 -181 -16 -253 -20 -44 -2 -81 -6 -84 -8 -2 -3 -18 -1 -34 3 -18 5
-29 5 -29 -1 0 -6 -6 -6 -18 0 -10 6 -24 6 -32 1 -8 -5 -18 -6 -23 -3 -5 3
-66 7 -135 9 -70 2 -143 6 -162 9 -19 3 -57 7 -85 9 -43 3 -155 19 -220 31
-11 2 -36 6 -55 10 -19 3 -46 8 -60 12 -14 3 -34 8 -45 10 -52 10 -60 12 -60
13 0 1 -11 4 -25 6 -42 8 -234 64 -255 75 -11 5 -30 11 -43 12 -12 0 -22 5
-22 10 0 5 -7 7 -15 3 -8 -3 -15 -1 -15 4 0 6 -3 9 -7 8 -8 -2 -124 40 -203
74 -76 33 -335 160 -340 167 -3 4 -21 15 -40 24 -112 55 -456 290 -468 319 -2
4 -8 8 -14 8 -6 0 -20 10 -32 23 -12 12 -42 38 -66 58 -25 20 -75 65 -112 100
-37 35 -75 71 -85 80 -17 15 -157 165 -204 219 -11 14 -51 63 -87 110 -37 47
-69 87 -72 90 -3 3 -9 12 -15 21 -5 9 -41 63 -80 120 -78 117 -78 117 -135
212 -22 38 -40 73 -40 78 0 5 -4 9 -10 9 -5 0 -10 9 -10 19 0 11 -3 21 -7 23
-8 3 -46 77 -47 90 -1 4 -7 13 -13 20 -7 6 -13 17 -13 23 0 6 -13 38 -28 71
-16 32 -43 97 -61 144 -18 47 -37 94 -41 105 -26 63 -39 105 -34 105 4 0 2 6
-3 13 -6 6 -14 26 -18 42 -5 17 -9 32 -10 35 -6 22 -28 97 -30 105 -1 6 -5 17
-8 25 -5 15 -13 48 -23 105 -3 17 -8 37 -11 45 -3 8 -7 24 -8 35 -1 11 -5 34
-10 50 -5 17 -8 33 -7 37 1 4 -3 31 -9 60 -6 29 -12 71 -15 93 -2 22 -6 56 -9
75 -8 63 -18 214 -19 277 -1 35 -5 63 -9 63 -5 0 -5 5 -1 11 4 7 6 44 5 83 -1
39 -2 76 -2 81 -1 38 20 313 26 345 2 8 6 44 10 80 4 36 9 68 10 71 2 3 7 28
10 55 4 27 10 65 15 84 5 19 11 46 14 60 2 14 12 57 21 95 9 39 18 78 20 87 2
9 9 26 15 38 6 12 9 24 6 27 -3 3 1 18 10 34 8 16 12 29 10 29 -11 0 100 297
154 413 16 35 34 74 39 88 6 13 15 31 20 39 5 8 17 33 27 55 11 22 21 42 24
45 3 3 18 30 34 60 37 69 156 261 173 278 7 7 13 17 13 21 0 4 8 17 18 29 9
11 24 30 32 42 8 12 24 34 35 49 11 14 23 31 27 36 4 6 25 31 45 56 21 25 52
64 70 85 31 38 84 96 188 204 59 62 149 145 220 205 27 22 53 45 59 51 44 42
389 286 436 307 8 4 29 15 45 26 196 120 603 299 765 336 3 0 21 6 41 13 20 7
45 15 55 17 10 2 52 13 92 24 40 10 75 19 77 19 3 0 18 3 33 6 59 13 79 17
137 27 81 15 113 20 155 24 19 2 35 4 35 5 0 3 50 8 130 14 39 3 70 6 70 6 0
1 42 3 93 5 51 1 95 5 98 8 3 3 18 1 34 -3 16 -4 30 -7 32 -5z"/>
<path d="M5036 7683 c-6 -6 -35 -8 -201 -16 -27 -1 -52 -5 -55 -9 -3 -3 -32
-9 -65 -12 -33 -3 -69 -8 -80 -10 -23 -5 -105 -25 -120 -30 -5 -1 -28 -7 -50
-11 -55 -12 -54 -12 -60 -15 -3 -1 -8 -3 -12 -4 -39 -10 -129 -41 -205 -71
-85 -33 -316 -142 -328 -155 -5 -5 -34 -22 -75 -44 -69 -38 -280 -194 -364
-270 -67 -62 -187 -183 -231 -235 -25 -30 -50 -59 -55 -65 -26 -27 -114 -147
-155 -211 -24 -39 -47 -72 -51 -75 -3 -3 -9 -15 -13 -27 -4 -13 -11 -23 -16
-23 -4 0 -11 -12 -15 -27 -3 -15 -10 -30 -14 -33 -10 -7 -91 -174 -91 -188 0
-7 -4 -12 -8 -12 -5 0 -9 -6 -10 -12 0 -7 -19 -60 -40 -118 -38 -98 -69 -195
-76 -230 -1 -8 -8 -35 -15 -60 -16 -54 -23 -95 -25 -132 0 -16 -4 -28 -7 -28
-3 0 -6 -6 -6 -12 0 -7 -3 -33 -7 -58 -12 -84 -19 -165 -20 -237 -1 -40 -4
-73 -8 -73 -4 0 -4 -11 1 -23 5 -13 5 -30 1 -37 -5 -8 -6 -18 -3 -23 3 -4 6
-50 8 -100 3 -106 14 -223 23 -252 3 -11 6 -29 7 -40 3 -49 37 -198 67 -300
12 -38 23 -74 24 -80 4 -17 61 -166 83 -220 69 -160 246 -462 317 -540 11 -12
35 -41 54 -65 65 -84 196 -220 295 -307 119 -103 340 -263 365 -263 5 0 10 -3
10 -7 0 -5 10 -13 23 -19 12 -6 72 -36 132 -66 98 -50 137 -68 210 -98 37 -15
140 -52 155 -55 8 -2 15 -4 15 -5 0 -1 8 -3 18 -6 28 -7 41 -11 57 -17 8 -4
26 -9 40 -11 14 -3 52 -12 85 -20 33 -9 72 -15 88 -16 15 0 27 -5 27 -11 0 -5
3 -8 8 -6 4 3 34 1 67 -4 75 -12 163 -20 238 -23 31 -2 60 -5 63 -9 3 -3 16
-2 28 3 12 4 29 4 38 -1 10 -6 26 -5 42 1 16 6 27 6 31 -1 4 -5 11 -6 18 -2 6
3 38 8 71 9 68 3 168 12 206 18 14 2 45 7 70 10 55 9 85 14 85 16 0 2 16 5 60
14 32 6 73 15 90 20 6 1 30 8 55 15 25 6 54 16 65 21 11 5 51 18 89 30 37 13
80 29 95 36 14 8 30 14 34 14 17 0 334 164 347 179 3 3 21 15 40 25 19 11 40
24 45 28 6 4 47 35 93 68 45 33 97 73 114 88 107 94 142 127 225 212 51 52 96
103 99 113 3 9 9 17 13 17 31 0 329 466 330 516 0 2 7 12 16 20 8 9 13 20 10
25 -4 5 -1 9 4 9 6 0 11 8 11 18 0 10 4 22 9 27 31 35 133 362 165 535 3 14 7
36 11 50 3 14 7 43 9 65 3 22 7 60 11 85 3 25 8 85 10 133 1 49 5 91 8 94 3 3
2 16 -3 29 -6 16 -6 24 1 24 6 0 7 5 4 10 -4 6 -8 59 -10 118 -5 117 -10 178
-21 232 -3 19 -6 43 -6 52 0 10 -3 20 -8 23 -5 3 -7 12 -4 19 4 10 -32 181
-50 241 -2 6 -4 13 -5 17 -3 14 -72 213 -80 233 -5 11 -18 40 -29 65 -11 25
-28 63 -38 85 -10 22 -19 42 -19 45 -1 3 -11 21 -23 40 -12 19 -22 39 -22 44
0 4 -13 28 -30 53 -16 24 -30 47 -30 51 0 4 -14 25 -30 46 -17 22 -30 43 -30
48 0 4 -7 16 -15 26 -9 9 -48 60 -88 112 -40 52 -84 108 -97 124 -47 54 -196
201 -249 246 -30 25 -59 50 -65 55 -27 26 -137 106 -206 151 -41 27 -77 51
-80 54 -5 5 -63 36 -192 103 -87 45 -336 145 -346 138 -1 -1 -16 6 -32 14 -16
8 -32 15 -35 15 -3 0 -6 0 -7 1 -2 0 -10 2 -18 4 -8 1 -33 8 -55 13 -22 6 -55
14 -74 17 -19 3 -37 8 -41 10 -4 3 -22 7 -41 9 -53 8 -101 16 -134 22 -16 2
-64 7 -105 11 -41 3 -80 9 -86 14 -6 5 -14 6 -17 2 -10 -9 -87 -10 -87 0 0 4
-5 5 -11 1 -14 -8 -103 -9 -116 -1 -6 4 -13 4 -17 0z m89 -1283 c11 4 24 5 30
2 5 -3 34 -7 65 -8 46 -2 161 -18 195 -28 6 -2 24 -6 40 -10 17 -4 37 -10 45
-13 8 -4 17 -7 20 -8 25 -6 90 -30 112 -42 15 -7 30 -13 33 -14 2 0 33 -16 67
-36 35 -20 72 -41 83 -47 78 -43 315 -265 315 -295 0 -6 5 -11 10 -11 6 0 10
-7 10 -15 0 -8 4 -15 8 -15 22 0 156 -258 179 -345 2 -5 12 -44 23 -85 29
-108 35 -158 34 -315 0 -124 -6 -197 -19 -245 -2 -8 -7 -28 -9 -45 -14 -78
-137 -375 -156 -375 -4 0 -13 -13 -20 -30 -7 -16 -16 -30 -21 -30 -4 0 -10 -8
-13 -17 -13 -38 -152 -183 -263 -273 -71 -57 -285 -171 -336 -179 -4 0 -21 -8
-37 -16 -17 -9 -30 -13 -30 -10 0 3 -8 1 -17 -4 -10 -5 -34 -12 -53 -15 -19
-4 -44 -9 -55 -11 -57 -11 -83 -16 -115 -18 -19 -2 -41 -6 -48 -11 -6 -4 -12
-3 -12 2 0 8 -63 7 -86 -2 -7 -3 -15 -2 -18 2 -4 3 -33 7 -64 8 -31 0 -73 5
-92 9 -19 4 -46 9 -60 10 -32 3 -166 42 -205 60 -16 7 -33 11 -37 9 -4 -3 -8
-1 -8 4 0 6 -10 12 -22 16 -30 7 -196 103 -244 141 -84 66 -165 144 -226 219
-56 68 -91 116 -84 116 4 0 -2 10 -14 22 -11 12 -20 28 -20 35 0 7 -4 13 -8
13 -4 0 -13 12 -19 28 -6 15 -27 65 -47 112 -20 47 -39 98 -42 114 -3 16 -7
33 -10 38 -3 5 -7 18 -9 31 -3 12 -11 55 -18 95 -14 74 -16 347 -2 407 3 17
11 50 16 75 50 233 185 470 368 647 56 55 208 167 251 186 14 7 27 14 30 17 7
8 85 43 85 39 1 -2 13 4 28 14 15 9 27 15 27 12 0 -3 10 0 22 6 22 12 101 36
148 45 14 2 32 7 40 10 8 3 35 8 60 10 97 9 121 12 127 17 3 3 15 2 27 -2 11
-5 30 -5 41 -1z"/>
</g>
</svg>
